<?xml version="1.0" encoding="UTF-8"?>
<svg xmlns="http://www.w3.org/2000/svg" xmlns:xlink="http://www.w3.org/1999/xlink" width="20px" height="20px" viewBox="0 0 20 20" version="1.1">
<defs>
<filter id="alpha" filterUnits="objectBoundingBox" x="0%" y="0%" width="100%" height="100%">
  <feColorMatrix type="matrix" in="SourceGraphic" values="0 0 0 0 1 0 0 0 0 1 0 0 0 0 1 0 0 0 1 0"/>
</filter>
<mask id="mask0">
  <g filter="url(#alpha)">
<rect x="0" y="0" width="20" height="20" style="fill:rgb(0%,0%,0%);fill-opacity:0.501961;stroke:none;"/>
  </g>
</mask>
<clipPath id="clip1">
  <rect x="0" y="0" width="20" height="20"/>
</clipPath>
<g id="surface5" clip-path="url(#clip1)">
<path style=" stroke:none;fill-rule:nonzero;fill:rgb(100%,100%,100%);fill-opacity:1;" d="M 14.871094 6.398438 C 14.511719 6.171875 14.050781 6.171875 13.640625 6.398438 L 10.769531 8.285156 L 8.820312 9.484375 L 6 11.371094 C 5.640625 11.601562 5.179688 11.601562 4.769531 11.371094 L 2.5625 9.886719 C 2.207031 9.65625 1.949219 9.199219 1.949219 8.6875 L 1.949219 5.828125 C 1.949219 5.371094 2.152344 4.914062 2.5625 4.628906 L 4.769531 3.199219 C 5.128906 2.972656 5.589844 2.972656 6 3.199219 L 8.207031 4.6875 C 8.5625 4.914062 8.820312 5.371094 8.820312 5.886719 L 8.820312 7.769531 L 10.769531 6.515625 L 10.769531 4.570312 C 10.769531 4.113281 10.5625 3.65625 10.152344 3.371094 L 6.050781 0.6875 C 5.691406 0.457031 5.230469 0.457031 4.820312 0.6875 L 0.617188 3.429688 C 0.207031 3.65625 0 4.113281 0 4.570312 L 0 9.941406 C 0 10.398438 0.207031 10.855469 0.617188 11.144531 L 4.769531 13.828125 C 5.128906 14.058594 5.589844 14.058594 6 13.828125 L 8.820312 12 L 10.769531 10.742188 L 13.589844 8.914062 C 13.949219 8.6875 14.410156 8.6875 14.820312 8.914062 L 17.027344 10.34375 C 17.382812 10.570312 17.640625 11.027344 17.640625 11.542969 L 17.640625 14.398438 C 17.640625 14.855469 17.4375 15.3125 17.027344 15.601562 L 14.871094 17.027344 C 14.511719 17.257812 14.050781 17.257812 13.640625 17.027344 L 11.4375 15.601562 C 11.078125 15.371094 10.820312 14.914062 10.820312 14.398438 L 10.820312 12.570312 L 8.871094 13.828125 L 8.871094 15.714844 C 8.871094 16.171875 9.078125 16.628906 9.488281 16.914062 L 13.640625 19.601562 C 14 19.828125 14.460938 19.828125 14.871094 19.601562 L 19.027344 16.914062 C 19.382812 16.6875 19.640625 16.230469 19.640625 15.714844 L 19.640625 10.285156 C 19.640625 9.828125 19.4375 9.371094 19.027344 9.085938 Z M 14.871094 6.398438 "/>
</g>
</defs>
<g id="surface1">
<use xlink:href="#surface5" mask="url(#mask0)"/>
</g>
</svg>
