<?xml version="1.0" encoding="utf-8"?>
<svg viewBox="115.471 112.046 113.228 113.228" width="113.228" height="113.228" xmlns="http://www.w3.org/2000/svg">
  <circle style="stroke: rgb(255, 255, 255); stroke-width: 2px; fill: rgb(61, 61, 61);" cx="172.085" cy="168.66" r="56.614"/>
  <circle style="stroke: rgb(255, 255, 255); stroke-width: 2px; fill: rgb(61, 61, 61);" cx="171.639" cy="175.106" r="50.168"/>
  <circle style="stroke: rgb(255, 255, 255); stroke-width: 2px; fill: rgb(61, 61, 61);" cx="170.683" cy="182.393" r="42.881"/>
  <circle style="stroke: rgb(255, 255, 255); stroke-width: 2px; fill: rgb(61, 61, 61);" cx="171.524" cy="189.119" r="36.155"/>
  <circle style="stroke: rgb(255, 255, 255); stroke-width: 2px; fill: rgb(61, 61, 61);" cx="171.391" cy="195.986" r="29.288"/>
  <circle style="stroke: rgb(255, 255, 255); stroke-width: 2px; fill: rgb(61, 61, 61);" cx="170.805" cy="202.292" r="22.982"/>
  <path d="M 157.057 199.439 L 160.607 199.439 L 161.977 204.753 L 163.341 199.439 L 166.88 199.439 L 166.88 208.172 L 164.676 208.172 L 164.676 201.512 L 162.966 208.172 L 160.971 208.172 L 159.267 201.512 L 159.267 208.172 L 157.057 208.172 Z M 171.685 203.478 Q 171.113 203.174 170.851 202.799 Q 170.494 202.286 170.494 201.619 Q 170.494 200.523 171.524 199.826 Q 172.329 199.29 173.651 199.29 Q 175.402 199.29 176.239 199.957 Q 177.076 200.624 177.076 201.637 Q 177.076 202.227 176.743 202.739 Q 176.493 203.12 175.956 203.478 Q 176.665 203.817 177.014 204.377 Q 177.362 204.937 177.362 205.616 Q 177.362 206.272 177.061 206.841 Q 176.761 207.409 176.323 207.719 Q 175.885 208.029 175.233 208.175 Q 174.58 208.321 173.842 208.321 Q 172.454 208.321 171.721 207.993 Q 170.988 207.666 170.607 207.028 Q 170.226 206.391 170.226 205.605 Q 170.226 204.836 170.583 204.303 Q 170.941 203.77 171.685 203.478 Z M 172.775 201.762 Q 172.775 202.215 173.058 202.492 Q 173.341 202.769 173.812 202.769 Q 174.229 202.769 174.497 202.495 Q 174.765 202.221 174.765 201.786 Q 174.765 201.333 174.485 201.05 Q 174.205 200.767 173.77 200.767 Q 173.329 200.767 173.052 201.044 Q 172.775 201.321 172.775 201.762 Z M 172.644 205.521 Q 172.644 206.099 172.996 206.465 Q 173.347 206.832 173.8 206.832 Q 174.235 206.832 174.58 206.459 Q 174.926 206.087 174.926 205.515 Q 174.926 204.937 174.577 204.568 Q 174.229 204.199 173.77 204.199 Q 173.317 204.199 172.981 204.556 Q 172.644 204.914 172.644 205.521 Z M 180.44 199.439 L 187.523 199.439 L 187.523 201.077 Q 186.6 201.911 185.98 202.882 Q 185.23 204.062 184.795 205.509 Q 184.449 206.635 184.33 208.172 L 181.912 208.172 Q 182.197 206.033 182.811 204.586 Q 183.425 203.138 184.753 201.488 L 180.44 201.488 Z" style="fill: rgb(255, 255, 255); white-space: pre;"/>
</svg>