<?xml version="1.0" standalone="no"?>
<!DOCTYPE svg PUBLIC "-//W3C//DTD SVG 20010904//EN"
 "http://www.w3.org/TR/2001/REC-SVG-20010904/DTD/svg10.dtd">
<svg version="1.0" xmlns="http://www.w3.org/2000/svg"
 width="32.000000pt" height="32.000000pt" viewBox="0 0 32.000000 32.000000"
 preserveAspectRatio="xMidYMid meet">

<g transform="translate(0.000000,32.000000) scale(0.100000,-0.100000)"
fill="#000000" stroke="none">
<path d="M100 298 c-49 -25 -91 -90 -89 -138 l1 -25 8 27 c24 81 71 118 150
118 47 0 56 -4 91 -39 25 -25 39 -47 38 -62 -1 -20 -2 -21 -6 -4 -15 57 -66
95 -130 95 -81 0 -143 -73 -127 -149 l7 -36 7 40 c3 22 11 50 18 61 13 24 69
54 102 54 46 0 110 -52 110 -90 0 -8 -8 -1 -16 17 -32 65 -125 80 -174 28 -22
-24 -48 -131 -28 -119 4 3 8 17 8 30 0 39 51 84 95 84 50 0 95 -45 94 -92 l-1
-33 -8 39 c-14 74 -95 102 -145 51 -38 -37 -34 -87 9 -120 41 -31 76 -30 92 3
7 14 14 19 18 13 8 -13 46 17 46 37 0 7 5 10 10 7 6 -3 10 2 10 12 0 14 2 15
9 5 7 -11 10 -10 15 3 13 35 6 93 -16 125 -52 75 -124 96 -198 58z m-3 -230
c-3 -8 -6 -5 -6 6 -1 11 2 17 5 13 3 -3 4 -12 1 -19z"/>
</g>
</svg>
